<svg width="64" height="64" viewBox="0 0 64 64" fill="none" xmlns="http://www.w3.org/2000/svg">
  <rect width="64" height="64" rx="16" fill="url(#gradient)"/>
  <path d="M32 16C23.163 16 16 23.163 16 32C16 40.837 23.163 48 32 48C40.837 48 48 40.837 48 32C48 23.163 40.837 16 32 16ZM32 20C38.617 20 44 25.383 44 32C44 38.617 38.617 44 32 44C25.383 44 20 38.617 20 32C20 25.383 25.383 20 32 20ZM32 24C27.589 24 24 27.589 24 32C24 36.411 27.589 40 32 40C36.411 40 40 36.411 40 32C40 27.589 36.411 24 32 24ZM32 28C34.209 28 36 29.791 36 32C36 34.209 34.209 36 32 36C29.791 36 28 34.209 28 32C28 29.791 29.791 28 32 28Z" fill="white"/>
  <defs>
    <linearGradient id="gradient" x1="0" y1="0" x2="64" y2="64" gradientUnits="userSpaceOnUse">
      <stop stop-color="#283577"/>
      <stop offset="1" stop-color="#3d4a99"/>
    </linearGradient>
  </defs>
</svg>
